<?xml version="1.0" standalone="no"?>
<!DOCTYPE svg PUBLIC "-//W3C//DTD SVG 20010904//EN"
 "http://www.w3.org/TR/2001/REC-SVG-20010904/DTD/svg10.dtd">
<svg version="1.0" xmlns="http://www.w3.org/2000/svg"
 width="260.000000pt" height="260.000000pt" viewBox="0 0 260.000000 260.000000"
 preserveAspectRatio="xMidYMid meet">
<metadata>
Created by potrace 1.11, written by Peter Selinger 2001-2013
</metadata>
<g transform="translate(0.000000,260.000000) scale(0.100000,-0.100000)"
fill="#000000" stroke="none">
<path d="M0 1300 l0 -1300 1300 0 1300 0 0 1300 0 1300 -1300 0 -1300 0 0
-1300z m2088 1217 c6 -5 12 -4 12 2 0 5 21 -2 48 -15 26 -13 53 -24 60 -24 7
0 28 -11 46 -25 18 -14 38 -25 44 -25 7 0 12 -4 12 -10 0 -5 -8 -6 -17 -3 -12
5 -15 2 -10 -10 3 -9 3 -17 -2 -17 -16 0 -215 89 -232 104 -10 8 -20 12 -23 9
-3 -4 -6 -1 -6 6 0 7 -5 9 -12 5 -6 -4 -9 -3 -5 2 6 11 67 12 85 1z m-1528
-68 c12 -23 19 -43 17 -46 -6 -5 -21 21 -37 61 -15 40 -3 31 20 -15z m928 -46
c29 -12 9 8 -23 23 -49 23 -37 29 14 7 26 -11 39 -23 36 -31 -3 -8 11 -20 38
-32 56 -25 25 -25 -54 0 -61 18 -149 67 -149 81 0 6 60 -15 138 -48z m139 -49
c-3 -3 -12 -4 -19 -1 -8 3 -5 6 6 6 11 1 17 -2 13 -5z m781 -104 c0 -51 2 -61
11 -55 17 10 21 -12 6 -31 -11 -14 -14 -15 -9 -3 3 10 -1 19 -11 23 -9 3 -14
2 -11 -3 3 -5 -3 -20 -13 -32 l-20 -24 3 40 c2 22 1 30 -1 18 -2 -13 -9 -23
-15 -23 -14 0 -5 85 11 104 20 24 48 16 49 -14z m-2023 9 c12 -4 -7 -7 -51 -7
-38 -1 -77 4 -85 9 -17 11 105 10 136 -2z m150 -9 c14 -7 8 -8 -20 -3 -22 3
-42 7 -44 9 -9 8 45 2 64 -6z m193 -261 c2 -41 0 -59 -7 -54 -10 6 -16 -41
-12 -105 8 -130 4 -242 -8 -249 -10 -7 -11 -30 -7 -102 4 -55 2 -125 -5 -169
-6 -41 -17 -124 -24 -185 l-13 -110 -1 94 c0 52 -4 92 -7 88 -8 -8 -34 -153
-34 -192 0 -22 -3 -26 -12 -17 -9 9 -15 9 -26 0 -13 -11 -14 5 -8 117 4 72 8
150 11 175 2 25 7 95 10 155 3 61 13 188 21 284 9 96 14 191 12 213 -2 21 0
38 4 38 5 0 8 6 8 14 0 13 -66 35 -112 37 -13 0 -41 6 -63 14 -37 12 -28 13
115 14 l155 1 3 -61z m428 -294 c9 -27 21 -55 26 -62 5 -7 6 -18 2 -24 -5 -8
-3 -9 6 -4 7 4 16 2 21 -6 14 -23 10 -32 -8 -18 -17 13 -17 13 -1 -12 12 -19
14 -29 6 -37 -8 -8 -4 -14 17 -22 15 -6 25 -13 22 -16 -9 -9 -77 24 -84 42 -3
9 0 20 8 25 8 5 9 9 4 9 -6 0 -11 8 -11 18 -2 25 -10 59 -33 132 -11 36 -21
67 -21 70 1 12 31 -50 46 -95z m244 55 c0 -5 -2 -10 -4 -10 -3 0 -8 5 -11 10
-3 6 -1 10 4 10 6 0 11 -4 11 -10z m-290 -140 c-27 -38 -37 -33 -16 9 9 16 16
40 17 53 1 21 1 21 11 -4 8 -23 6 -33 -12 -58z m160 -14 c25 -14 39 -26 32
-26 -7 0 -10 -5 -6 -11 3 -6 -9 -3 -27 6 -34 17 -60 43 -81 80 -10 18 -9 18
13 -2 13 -12 44 -33 69 -47z m-1230 17 c0 -32 -5 -28 -14 10 -4 19 -3 26 4 22
5 -3 10 -18 10 -32z m687 -235 c-3 -7 -5 -2 -5 12 0 14 2 19 5 13 2 -7 2 -19
0 -25z m398 -78 c-3 -5 -1 -11 5 -15 6 -3 10 4 10 17 0 14 3 18 8 11 4 -6 20
-15 35 -18 15 -4 27 -13 27 -20 0 -21 19 -28 35 -15 11 9 15 9 15 1 0 -6 5
-11 11 -11 5 0 7 5 3 12 -4 6 -3 8 3 5 17 -11 22 -44 7 -44 -8 0 -14 4 -14 9
0 4 -5 8 -12 8 -6 0 -8 -3 -5 -7 4 -4 -32 -22 -80 -41 -49 -19 -93 -38 -99
-43 -8 -6 -14 -4 -17 5 -4 11 -1 13 11 10 16 -5 16 -4 0 9 -10 8 -15 17 -11
20 3 4 2 7 -4 7 -5 0 -10 15 -9 33 1 26 7 35 36 50 19 10 34 22 32 28 -1 6 2
8 8 4 6 -3 8 -10 5 -15z m-410 -75 c-4 -31 -9 -54 -12 -51 -3 2 -1 30 2 61 4
31 9 54 12 51 3 -2 1 -30 -2 -61z m550 -25 c-3 -5 -12 -10 -18 -10 -7 0 -6 4
3 10 19 12 23 12 15 0z m455 -11 c-7 -11 -14 -18 -17 -15 -8 8 5 36 17 36 7 0
7 -6 0 -21z m-415 -39 c-18 -8 -17 -9 8 -9 16 -1 37 -6 48 -11 15 -8 21 -7 25
5 8 20 24 9 24 -16 0 -16 -5 -18 -27 -13 -16 4 -29 11 -31 16 -7 16 -64 8 -94
-13 -16 -12 -31 -19 -34 -16 -3 2 10 14 28 26 18 11 29 21 23 21 -5 0 -3 5 5
10 8 5 22 9 30 9 10 0 8 -3 -5 -9z m-248 -64 c-2 -40 -1 -42 23 -38 23 3 23 2
-7 -17 -18 -11 -33 -23 -33 -26 0 -4 5 -3 10 0 16 10 11 -1 -7 -16 -11 -10
-14 -10 -9 -1 4 6 3 12 -3 12 -5 0 -13 -4 -16 -10 -3 -5 -12 -10 -18 -10 -8 0
-9 2 -1 8 6 4 11 14 12 22 3 54 16 100 23 88 6 -9 9 -4 9 15 0 16 4 26 10 22
5 -3 8 -25 7 -49z m417 36 c2 -4 -9 -7 -24 -7 -16 -1 -27 2 -25 5 5 8 44 10
49 2z m-137 -8 c-3 -3 -12 -4 -19 -1 -8 3 -5 6 6 6 11 1 17 -2 13 -5z m-119
-103 c-29 -39 -58 -70 -65 -71 -6 0 -14 -6 -16 -12 -3 -7 -6 -8 -6 -3 -1 6 17
31 40 55 22 25 52 60 66 78 14 18 28 31 30 28 2 -2 -20 -36 -49 -75z m-8 46
c0 -2 -10 -12 -22 -23 l-23 -19 19 23 c18 21 26 27 26 19z m113 -29 c-11 -13
-23 -30 -26 -38 -5 -13 -6 -13 -6 0 -1 20 27 60 41 60 6 0 2 -10 -9 -22z
m-228 -18 c3 -6 -1 -7 -9 -4 -18 7 -21 14 -7 14 6 0 13 -4 16 -10z m249 -25
c-8 -20 -12 -41 -8 -47 4 -7 3 -8 -4 -4 -15 9 -15 41 -2 67 18 33 30 20 14
-16z m-456 -30 c-9 -19 -9 -28 0 -37 9 -9 12 -8 12 5 0 10 7 20 15 23 8 4 13
9 11 13 -3 4 4 7 14 7 17 0 18 -2 5 -16 -8 -9 -12 -20 -9 -23 4 -4 -1 -10 -10
-13 -14 -5 -15 -9 -4 -16 8 -5 2 -6 -17 -2 -16 4 -32 11 -33 16 -2 4 -8 6 -13
2 -8 -5 4 37 17 57 12 21 23 7 12 -16z m342 -20 c-7 -8 -10 -22 -6 -30 3 -9 2
-13 -4 -10 -14 8 -13 28 2 43 17 17 23 15 8 -3z m-229 -39 c5 3 9 1 9 -5 0 -5
-4 -13 -10 -16 -5 -3 -10 -1 -10 5 0 6 -4 8 -10 5 -11 -7 -14 8 -3 19 4 4 9 2
11 -3 2 -6 8 -9 13 -5z m-412 -123 c-20 -38 -28 -102 -10 -73 6 8 7 18 5 22
-3 4 -1 8 5 8 5 0 13 9 16 20 7 23 37 44 75 55 19 5 21 4 10 -4 -12 -9 -11
-11 8 -11 16 0 21 4 16 13 -5 8 -2 7 9 -2 13 -10 15 -17 6 -27 -9 -11 -8 -14
2 -14 11 0 11 -2 -1 -10 -10 -7 -3 -8 24 -5 21 3 42 7 46 10 5 3 11 -1 14 -7
5 -10 7 -10 12 -1 3 6 16 10 28 7 14 -2 29 3 36 11 10 12 15 13 21 4 6 -10 23
-9 81 1 40 7 85 12 99 11 14 -1 44 5 65 12 41 14 77 13 159 -3 50 -9 136 -20
210 -26 22 -2 54 -6 70 -9 17 -4 52 -6 79 -6 30 1 53 -4 58 -11 6 -10 8 -10 8
0 0 6 7 12 16 12 10 0 14 -6 11 -14 -5 -11 0 -13 25 -5 24 6 37 4 58 -11 14
-10 35 -17 46 -16 10 2 24 1 29 -3 11 -6 17 -8 39 -10 8 0 22 -8 30 -17 9 -8
20 -13 25 -10 8 6 109 -25 134 -41 6 -4 21 -9 32 -10 21 -4 42 -20 34 -27 -4
-4 -55 -14 -106 -21 -65 -9 -110 -18 -123 -25 -8 -4 -40 -10 -70 -13 -65 -6
-260 -50 -345 -78 -33 -11 -72 -24 -87 -29 -16 -5 -28 -5 -28 0 0 5 9 12 21
15 11 4 19 8 17 10 -2 2 -24 -3 -48 -11 -24 -8 -71 -17 -105 -20 -87 -7 -205
-25 -231 -34 -12 -5 -48 -12 -81 -15 -66 -7 -266 -34 -303 -41 -14 -3 -58 -8
-99 -11 l-74 -6 7 27 c4 18 2 28 -8 32 -23 9 -39 96 -31 177 15 165 24 216 47
242 31 36 39 31 17 -12z m194 14 c-2 -4 -5 -7 -8 -7 -3 0 -9 0 -15 0 -5 0 -10
4 -10 9 0 5 8 8 18 7 9 -2 16 -6 15 -9z m-605 -337 c103 -30 162 -60 162 -83
1 -7 19 -25 40 -42 21 -16 39 -33 40 -37 0 -3 -21 -9 -48 -13 -51 -7 -71 -1
-143 44 -25 16 -56 32 -69 36 -36 11 -90 46 -85 55 2 4 -4 15 -15 25 -24 22
-26 45 -4 45 9 0 64 -14 122 -30z m2327 10 c38 -25 21 -25 -25 0 -19 11 -28
19 -20 20 8 0 29 -9 45 -20z m-1045 -164 c0 -3 -4 -8 -10 -11 -5 -3 -10 -1
-10 4 0 6 5 11 10 11 6 0 10 -2 10 -4z m-159 -13 c-9 -4 -10 -8 -2 -12 6 -4
-19 -19 -55 -33 -36 -14 -62 -22 -57 -17 5 5 32 18 59 29 27 10 42 19 34 20
-13 0 -13 1 0 10 8 5 20 9 25 9 6 0 4 -3 -4 -6z m-127 -14 c4 6 13 11 19 11 7
0 4 -7 -7 -15 -10 -7 -15 -19 -11 -25 3 -6 2 -9 -3 -8 -5 2 -19 -8 -32 -22
l-22 -25 20 35 c11 19 17 42 15 50 -4 12 -3 12 5 1 7 -9 12 -10 16 -2z m436
-109 c-6 -4 -23 -6 -37 -4 -41 4 -36 11 7 11 23 0 36 -3 30 -7z"/>
<path d="M682 1685 c-1 -14 2 -25 6 -25 5 0 8 9 7 20 -2 29 -10 33 -13 5z"/>
<path d="M652 1400 c0 -19 2 -27 5 -17 2 9 2 25 0 35 -3 9 -5 1 -5 -18z"/>
<path d="M643 1320 c0 -25 2 -35 4 -22 2 12 2 32 0 45 -2 12 -4 2 -4 -23z"/>
<path d="M641 1234 c0 -11 3 -14 6 -6 3 7 2 16 -1 19 -3 4 -6 -2 -5 -13z"/>
<path d="M1152 1278 c5 -12 -23 -41 -42 -43 -3 0 -13 -5 -23 -11 -16 -9 -17
-12 -3 -23 9 -8 16 -9 16 -3 0 6 18 13 41 17 29 5 43 14 51 31 13 27 12 29
-21 39 -19 6 -23 4 -19 -7z m26 -23 c-3 -3 -9 2 -12 12 -6 14 -5 15 5 6 7 -7
10 -15 7 -18z"/>
<path d="M1061 1244 c0 -11 3 -14 6 -6 3 7 2 16 -1 19 -3 4 -6 -2 -5 -13z"/>
<path d="M699 777 c-1 -4 -2 -10 -3 -14 -1 -5 -5 -14 -9 -20 -5 -7 -4 -13 2
-13 11 0 25 39 17 47 -3 4 -7 3 -7 0z"/>
<path d="M562 540 c0 -14 2 -19 5 -12 2 6 2 18 0 25 -3 6 -5 1 -5 -13z"/>
<path d="M1116 415 c-24 -18 -22 -18 34 -1 40 13 42 15 15 15 -16 0 -39 -6
-49 -14z"/>
</g>
</svg>
